<svg version="1.1" id="Layer_1" xmlns="http://www.w3.org/2000/svg" xmlns:xlink="http://www.w3.org/1999/xlink" x="0px" y="0px"
	 width="100%" viewBox="0 0 3000 3000" enable-background="new 0 0 3000 3000" xml:space="preserve">
<path fill="#FFFFFF" opacity="1.000000" stroke="none" 
	d="
M3001.256348,1021.712891 
	C3002.000000,1345.375122 3002.000000,1668.750244 3002.000000,1993.062744 
	C2996.512207,1993.350342 2997.760010,1988.805420 2997.514160,1985.587769 
	C2989.389893,1879.217529 2951.945801,1783.562744 2892.231445,1695.923584 
	C2887.103271,1688.397217 2881.874268,1687.610107 2873.702393,1690.369385 
	C2806.363037,1713.107178 2737.754883,1731.224976 2667.997803,1744.778564 
	C2624.832275,1753.165283 2581.480713,1760.623413 2537.654785,1764.857788 
	C2536.015869,1765.016113 2534.331787,1765.100708 2532.904785,1766.470825 
	C2533.312012,1770.134521 2536.575195,1771.759033 2538.806641,1774.004150 
	C2561.128174,1796.460938 2583.847900,1818.529907 2605.869385,1841.275513 
	C2650.435791,1887.306763 2677.295410,1942.111084 2684.721924,2005.891724 
	C2694.243896,2087.667480 2674.170898,2161.482666 2621.934570,2225.414795 
	C2594.091553,2259.492188 2562.052490,2289.775879 2529.670166,2319.565430 
	C2525.742920,2323.178223 2521.881836,2326.846924 2518.112549,2330.615967 
	C2428.077881,2420.639404 2337.827881,2510.449219 2248.115967,2600.792725 
	C2204.042236,2645.176758 2151.356445,2672.458984 2089.916748,2681.878174 
	C2002.840942,2695.228027 1924.191040,2674.309082 1856.913086,2617.233643 
	C1816.536255,2582.980225 1780.490112,2543.944824 1744.253906,2505.276611 
	C1705.762939,2464.202637 1673.166870,2418.866211 1644.964233,2370.287354 
	C1595.160156,2284.500488 1563.688110,2192.336670 1549.489380,2094.226562 
	C1544.141113,2057.270996 1541.163452,2020.036133 1541.603149,1982.769165 
	C1542.685425,1891.051392 1558.572388,1801.896851 1591.242554,1715.965210 
	C1594.084839,1708.489380 1596.787109,1700.962402 1599.705200,1693.512939 
	C1603.817749,1683.014160 1603.365112,1682.196045 1593.013916,1678.041260 
	C1543.837646,1658.302979 1494.325073,1639.422852 1444.992920,1620.081787 
	C1404.661255,1604.269287 1364.483521,1588.054077 1323.796143,1573.157227 
	C1312.305542,1568.950195 1311.509766,1569.379517 1306.945312,1580.760132 
	C1272.526001,1666.576660 1249.391235,1755.333862 1237.130127,1846.970581 
	C1228.935181,1908.217285 1226.230957,1969.823242 1228.984375,2031.399780 
	C1234.966431,2165.176025 1264.015015,2294.008789 1317.671021,2416.882568 
	C1361.435303,2517.104004 1418.552979,2609.077148 1490.290405,2691.863281 
	C1537.069458,2745.846680 1588.343872,2795.530762 1640.113159,2844.440186 
	C1705.509277,2906.224365 1783.222046,2948.282959 1869.527100,2974.267090 
	C1910.865723,2986.712646 1952.932007,2994.776855 1996.023315,2997.471680 
	C1998.995239,2997.657715 2002.099487,2997.612549 2004.064941,3001.217285 
	C1673.958252,3002.000000 1343.916382,3002.000000 1012.937317,3002.000000 
	C1011.809387,3001.505615 1011.618835,3001.011475 1011.884338,2999.867188 
	C1027.305176,2994.015869 1043.172852,2994.468262 1058.575195,2992.004883 
	C1143.410400,2978.437744 1221.767944,2948.300537 1293.834351,2901.624512 
	C1301.394653,2896.728027 1308.425659,2891.085938 1315.957886,2886.165039 
	C1322.383911,2881.966797 1323.287476,2876.963623 1320.173462,2869.925049 
	C1299.124512,2822.351562 1280.554565,2773.801025 1264.473755,2724.333496 
	C1247.468140,2672.021973 1232.470459,2619.136475 1220.980835,2565.304688 
	C1220.633057,2563.674805 1220.199463,2562.062500 1219.874634,2560.430176 
	C1218.511597,2553.583740 1215.725342,2552.883789 1210.786133,2557.869141 
	C1195.070679,2573.731934 1179.409302,2589.654541 1163.411133,2605.230225 
	C1119.222290,2648.252197 1066.276489,2673.699707 1005.412598,2682.548828 
	C934.697937,2692.830078 869.057129,2678.192383 808.301147,2640.996826 
	C791.476807,2630.697266 775.965576,2618.522461 762.031738,2604.613525 
	C641.027527,2483.826172 519.637512,2363.417236 399.551636,2241.722168 
	C352.380585,2193.919189 326.956879,2134.939941 321.155304,2067.537109 
	C314.513947,1990.377197 336.333862,1922.115845 383.337860,1861.351807 
	C390.663818,1851.881226 398.490204,1842.769531 406.993835,1834.274658 
	C454.151764,1787.166870 500.961914,1739.706055 548.485352,1692.970337 
	C604.391846,1637.990967 666.506104,1591.385864 736.185974,1554.891968 
	C821.594421,1510.160400 911.928040,1481.912109 1007.701233,1471.036377 
	C1041.123779,1467.241089 1074.684937,1464.508789 1108.299438,1465.563354 
	C1204.034668,1468.566406 1296.517212,1487.200928 1385.698608,1522.887695 
	C1484.389282,1562.380005 1583.355835,1601.220337 1682.778931,1638.829834 
	C1766.360229,1670.446777 1852.959961,1689.837769 1941.843384,1699.952881 
	C1999.007324,1706.458252 2056.331055,1707.518555 2113.430420,1704.800415 
	C2227.304443,1699.379883 2337.786865,1675.865356 2444.509766,1635.086304 
	C2519.556396,1606.410645 2590.604248,1570.059204 2657.437012,1525.645508 
	C2704.379150,1494.450317 2748.403320,1459.459839 2790.209229,1421.513916 
	C2829.633545,1385.729614 2865.472656,1346.983276 2895.710693,1303.199585 
	C2930.031250,1253.505005 2956.008301,1199.719971 2973.926270,1141.970093 
	C2985.922852,1103.305176 2993.206299,1063.749756 2998.813965,1023.032349 
	C2999.643066,1022.036011 3000.078125,1021.730835 3001.256348,1021.712891 
z"/>
<path fill="#119A93" opacity="1.000000" stroke="none" 
	d="
M3000.507568,1021.320007 
	C2997.553711,1062.527222 2988.950684,1101.837769 2977.099854,1140.426147 
	C2946.743164,1239.272095 2893.976318,1324.472534 2820.141846,1396.776855 
	C2697.311768,1517.061768 2554.282471,1603.962036 2390.625244,1656.712158 
	C2325.820312,1677.600098 2259.583740,1692.011597 2191.985596,1700.533447 
	C2127.965576,1708.604248 2063.743652,1710.684448 1999.441895,1707.269897 
	C1876.656982,1700.749878 1758.615356,1672.974731 1644.493896,1627.188721 
	C1550.872803,1589.627319 1456.740356,1553.326416 1362.580322,1517.127686 
	C1304.208862,1494.687500 1243.674316,1480.661987 1181.489624,1473.579712 
	C1134.330200,1468.208496 1087.115356,1466.825806 1039.814087,1470.408691 
	C942.464844,1477.782349 849.610291,1502.257202 761.622925,1544.719727 
	C683.174377,1582.578491 613.255310,1632.463135 551.690491,1694.096802 
	C504.109833,1741.730469 456.419250,1789.254517 408.762207,1836.811890 
	C366.051758,1879.432739 337.681335,1929.964844 327.417786,1989.570190 
	C310.822571,2085.946533 334.827789,2171.669922 403.332611,2241.543213 
	C522.329956,2362.917969 643.134216,2482.528076 763.729187,2602.326172 
	C807.868347,2646.173584 861.708801,2672.215576 923.475281,2680.153809 
	C1018.126038,2692.318604 1099.743286,2664.389404 1168.004517,2597.716064 
	C1183.739258,2582.347412 1199.059937,2566.554932 1214.600220,2550.986816 
	C1215.729614,2549.855225 1216.710571,2548.342285 1219.073730,2548.440430 
	C1222.017090,2553.500488 1222.313843,2559.531738 1223.561157,2565.177734 
	C1246.757324,2670.186279 1280.051758,2771.891602 1323.039795,2870.443848 
	C1323.838745,2872.275146 1324.594604,2874.131348 1325.507080,2875.905762 
	C1327.375244,2879.538818 1326.338501,2882.070801 1323.028442,2884.308594 
	C1312.265503,2891.582520 1301.802002,2899.313721 1290.884277,2906.342529 
	C1218.122314,2953.187012 1138.716553,2982.472900 1053.272705,2995.508301 
	C1040.119019,2997.515137 1026.810791,2998.508057 1012.691956,2999.928711 
	C1004.014771,3002.289062 996.025574,3000.792236 988.143616,3000.881348 
	C965.882751,3001.132080 943.617249,3000.968994 920.505493,3000.969727 
	C876.554871,3001.549561 834.854736,2992.658447 793.880188,2980.721436 
	C714.585144,2957.620117 642.474854,2920.343994 578.415771,2867.939209 
	C561.918945,2854.443604 545.953186,2840.265625 530.885742,2825.243652 
	C414.093475,2708.805908 297.206787,2592.458984 181.053329,2475.385254 
	C88.005577,2381.600586 29.567694,2269.590576 8.163703,2138.773193 
	C4.826221,2118.375244 3.820306,2097.794678 2.448672,2076.599609 
	C2.000000,2053.958252 2.000000,2031.916382 2.000000,2008.937256 
	C4.782232,1981.624390 5.997088,1955.122437 11.045182,1928.942383 
	C20.370787,1880.578979 35.083443,1834.034180 55.527771,1789.277100 
	C81.336189,1732.776855 115.298668,1681.597534 156.475922,1635.151123 
	C159.575119,1631.655151 162.894241,1628.379150 166.192444,1625.080566 
	C222.038712,1569.224854 277.809937,1513.293945 333.762787,1457.545166 
	C403.387970,1388.173706 481.888885,1330.656738 567.799988,1283.117432 
	C678.816345,1221.686035 796.982849,1180.848877 922.231995,1160.704102 
	C958.059082,1154.941895 994.129395,1151.376709 1030.393188,1148.928833 
	C1067.389893,1146.431641 1104.388672,1146.499512 1141.253174,1147.853638 
	C1191.474731,1149.698242 1241.410889,1155.753296 1290.987549,1164.750244 
	C1374.377319,1179.883301 1454.159668,1206.514648 1532.680908,1237.717163 
	C1620.009155,1272.419556 1707.437378,1306.898560 1795.294678,1340.225098 
	C1856.920532,1363.601562 1920.915649,1377.856812 1986.740479,1383.680664 
	C2018.621216,1386.501343 2050.538574,1388.673706 2082.469238,1387.183838 
	C2149.232178,1384.068970 2214.945801,1374.177002 2279.081055,1354.628052 
	C2363.087891,1329.022095 2440.528809,1290.347656 2511.293945,1238.470093 
	C2551.154785,1209.248413 2588.862549,1177.315063 2620.107666,1138.814087 
	C2660.785889,1088.689453 2680.586670,1030.768433 2681.470703,966.105225 
	C2682.431396,895.850159 2660.444580,833.941345 2616.040771,779.738708 
	C2612.225342,775.081116 2608.055420,770.794006 2603.815186,766.553711 
	C2483.161133,645.893799 2362.587158,525.154053 2241.802979,404.624664 
	C2198.088135,361.002075 2145.029297,335.047241 2084.079102,327.034088 
	C2002.969116,316.370636 1929.320190,335.501434 1864.916992,387.088318 
	C1863.876709,387.921600 1862.811523,388.723846 1861.755859,389.537933 
	C1850.715454,398.052124 1847.470215,396.913177 1844.952881,383.517273 
	C1838.367432,348.474304 1831.614258,313.475372 1823.521240,278.731323 
	C1808.151123,212.746521 1788.259155,148.151627 1764.989014,84.560585 
	C1760.003540,70.936440 1760.866821,68.540817 1774.237305,62.029026 
	C1835.888184,32.003479 1900.697998,12.498999 1968.830078,4.424266 
	C1977.702515,3.372746 1986.758667,3.619565 1996.538208,3.031372 
	C2006.424805,2.958559 2015.493164,3.179741 2025.279785,2.456528 
	C2037.376099,2.000000 2048.752197,2.000000 2061.063965,2.000000 
	C2070.075684,4.335125 2078.331299,2.395032 2087.266113,3.029999 
	C2133.395508,3.605134 2177.280518,12.830031 2220.428467,25.897175 
	C2288.000000,46.360703 2350.216797,77.646309 2406.949951,119.704704 
	C2428.631348,135.778107 2449.409180,153.017944 2468.506592,172.078262 
	C2590.395020,293.730591 2712.328369,415.339661 2833.753174,537.453918 
	C2873.872070,577.800476 2906.774658,623.742188 2933.867188,673.904541 
	C2964.696289,730.985596 2985.395508,791.463989 2996.998291,855.181885 
	C3000.470459,874.248779 3001.148682,893.497253 3001.551514,913.402832 
	C3002.000000,942.708435 3002.000000,971.416931 3002.000000,1001.062683 
	C2999.787598,1008.072571 3001.596680,1014.387268 3000.507568,1021.320007 
z"/>
<path fill="#FFFFFF" opacity="1.000000" stroke="none" 
	d="
M1996.514648,3.536677 
	C1917.888062,10.674794 1843.425293,30.660593 1773.122314,65.692856 
	C1771.631958,66.435486 1770.196045,67.328514 1768.640747,67.891838 
	C1763.865601,69.621300 1763.097290,72.373413 1764.923584,77.162277 
	C1770.616211,92.088989 1776.028931,107.130173 1781.202148,122.246056 
	C1810.904053,209.033371 1833.413330,297.642242 1848.254272,388.180664 
	C1848.576050,390.143341 1848.723267,392.171082 1850.177368,393.862000 
	C1852.988403,394.853424 1854.252563,392.362366 1855.835815,390.998535 
	C1897.271118,355.304749 1944.987793,332.461243 1999.015991,324.820984 
	C2092.486816,311.602997 2175.557861,335.907440 2243.136719,402.356873 
	C2363.619385,520.825867 2482.634277,640.791321 2601.877441,760.515198 
	C2647.835693,806.658691 2675.111572,862.534424 2682.283203,927.418518 
	C2692.505371,1019.905151 2665.165039,1100.098389 2599.469727,1166.049072 
	C2513.061768,1252.793335 2411.025146,1314.589966 2294.599121,1352.509644 
	C2241.222168,1369.894287 2186.555908,1381.058472 2130.640869,1386.364746 
	C2005.533691,1398.237549 1885.125610,1379.359863 1768.508423,1333.034424 
	C1671.667847,1294.565308 1574.537231,1256.813599 1477.263672,1219.450928 
	C1400.825806,1190.091187 1321.758789,1170.717163 1240.613403,1159.545166 
	C1176.708618,1150.746948 1112.510742,1147.380737 1048.191650,1150.608887 
	C798.454468,1163.143433 577.941895,1250.222168 386.982117,1411.837402 
	C350.291077,1442.890137 317.023712,1477.509155 283.059540,1511.399902 
	C247.435730,1546.946777 211.649750,1582.338501 176.461655,1618.313477 
	C93.979576,1702.639526 40.561222,1802.638550 15.985985,1918.050903 
	C10.009098,1946.120117 7.231638,1974.612793 3.975556,2003.052002 
	C3.824848,2004.368164 3.453670,2005.659058 2.592585,2007.480957 
	C2.000000,1675.291504 2.000000,1342.583130 2.000000,1008.937317 
	C2.842993,1007.253540 3.823515,1006.940857 5.672297,1007.386841 
	C10.543910,1016.089294 8.971237,1025.351562 10.092047,1034.147217 
	C18.286766,1098.455811 35.222355,1160.124023 63.140339,1218.763184 
	C72.895073,1239.251953 83.504875,1259.216919 95.472855,1278.463867 
	C101.320053,1287.867188 102.094604,1288.073975 112.216400,1282.940186 
	C189.080948,1243.954956 268.918091,1212.302979 350.908051,1185.938232 
	C366.137634,1181.041016 381.534302,1176.700806 396.846619,1172.079834 
	C405.443329,1169.485718 405.579712,1168.759277 399.267090,1161.965820 
	C356.948456,1116.424072 330.626892,1063.004883 322.345490,1001.385803 
	C313.193268,933.287109 326.639282,869.486816 362.498230,810.717102 
	C376.088562,788.443787 392.687378,768.509277 411.171570,750.049988 
	C526.490417,634.886169 641.547546,519.459839 757.008606,404.438904 
	C801.502197,360.114838 854.910645,331.543060 917.156189,322.397034 
	C1001.340820,310.027405 1077.885132,329.412384 1145.161499,382.651947 
	C1156.187256,391.377197 1166.119385,401.195831 1175.876099,411.221100 
	C1209.336060,445.602203 1244.673706,478.124084 1276.767334,513.865540 
	C1313.674072,554.967163 1345.362915,599.778442 1372.549561,647.759766 
	C1407.765503,709.911438 1433.255737,775.991272 1449.962769,845.388916 
	C1459.720947,885.922180 1465.930542,927.031921 1468.859253,968.701477 
	C1472.703735,1023.400085 1470.906982,1077.820435 1463.220703,1132.058594 
	C1462.093872,1140.011475 1464.389771,1144.248901 1472.164673,1147.121460 
	C1564.072632,1181.078003 1654.764160,1218.183594 1746.231567,1253.285522 
	C1758.206665,1257.881104 1759.021606,1257.531006 1761.602661,1245.446899 
	C1771.844971,1197.494873 1778.809082,1149.113159 1781.650024,1100.114380 
	C1783.267944,1072.211182 1785.916626,1044.326172 1785.282837,1016.376160 
	C1782.823608,907.918579 1767.441650,801.547607 1734.358276,697.883789 
	C1702.104370,596.819214 1656.423096,502.409485 1596.651611,414.856842 
	C1565.239380,368.844757 1530.282471,325.653900 1492.374634,284.729126 
	C1457.247314,246.806305 1420.639404,210.354782 1383.442017,174.575836 
	C1309.572632,103.522865 1223.200195,53.626438 1123.939575,26.668110 
	C1085.241333,16.158018 1045.960938,9.292801 1005.960266,6.519323 
	C1002.991821,6.313504 999.881897,6.389844 997.931030,2.775012 
	C1330.041748,2.000000 1662.083618,2.000000 1995.062744,2.000000 
	C1996.326904,2.336503 1996.653931,2.673006 1996.514648,3.536677 
z"/>
<path fill="#43BDAA" opacity="1.000000" stroke="none" 
	d="
M2004.937256,3002.000000 
	C1994.430420,2998.660645 1984.306030,2999.623291 1974.474976,2998.511475 
	C1927.262207,2993.172363 1881.355103,2982.526611 1836.742798,2966.294678 
	C1751.133545,2935.145752 1676.428101,2887.008057 1612.414307,2822.183105 
	C1585.719604,2795.150146 1558.346191,2768.778320 1531.971069,2741.440430 
	C1399.143555,2603.764648 1308.477539,2442.312988 1260.077759,2257.209717 
	C1248.024170,2211.111084 1239.546997,2164.335938 1233.590454,2117.037598 
	C1226.158447,2058.024170 1224.025146,1998.797119 1226.501343,1939.494751 
	C1230.028076,1855.036377 1243.475098,1772.028198 1266.610229,1690.654663 
	C1277.455078,1652.509399 1290.299561,1615.045654 1305.243530,1578.318359 
	C1311.188232,1563.708252 1307.540649,1564.968262 1323.307617,1570.389893 
	C1359.214966,1582.737061 1394.234741,1597.451050 1429.622314,1611.181519 
	C1485.812500,1632.983521 1541.901001,1655.048218 1598.032227,1677.002319 
	C1598.652710,1677.244995 1599.271973,1677.490845 1599.889160,1677.741333 
	C1607.544067,1680.845459 1607.719971,1680.957764 1604.674438,1688.544434 
	C1596.112549,1709.873169 1588.072266,1731.385742 1581.053711,1753.277100 
	C1565.764526,1800.965332 1555.186401,1849.650269 1549.670166,1899.445923 
	C1545.962036,1932.918945 1543.526855,1966.455322 1544.482422,2000.143311 
	C1549.487671,2176.617676 1606.732178,2333.894287 1717.961548,2471.264160 
	C1733.701782,2490.703613 1750.489014,2509.210449 1768.186890,2526.890869 
	C1792.946045,2551.625977 1817.430786,2576.642090 1842.488525,2601.070557 
	C1887.553467,2645.004150 1941.242920,2672.177734 2003.771606,2680.136475 
	C2098.782959,2692.229492 2180.823242,2664.530762 2248.793945,2596.814209 
	C2339.230957,2506.715332 2429.350586,2416.298096 2519.653564,2326.064697 
	C2545.822021,2299.916504 2572.220703,2273.998291 2598.389648,2247.850342 
	C2633.455322,2212.813232 2659.779053,2172.140381 2672.655273,2124.114258 
	C2701.428711,2016.791504 2678.384033,1921.771118 2601.769043,1840.679321 
	C2579.802979,1817.429810 2556.651611,1795.298218 2533.946045,1772.752808 
	C2531.614014,1770.437256 2528.608887,1768.799683 2524.218994,1765.617065 
	C2535.832031,1760.990967 2545.202881,1761.548462 2554.099854,1760.428711 
	C2600.030029,1754.647217 2645.624756,1746.942871 2690.898682,1737.392212 
	C2754.466553,1723.982178 2817.051270,1706.902100 2878.593506,1686.043823 
	C2886.289795,1683.435425 2886.400635,1683.445435 2891.992432,1691.336548 
	C2928.875977,1743.385986 2956.956543,1799.792358 2976.097656,1860.679810 
	C2987.314697,1896.361816 2994.744873,1932.826294 2999.501709,1969.863159 
	C3000.472900,1977.424194 3000.491699,1985.107422 3001.474609,1993.367188 
	C3002.000000,2025.375122 3002.000000,2056.750244 3002.000000,2089.062744 
	C2999.764648,2105.419678 3001.199463,2121.050293 2998.845947,2136.516602 
	C2990.926025,2188.559326 2976.256836,2238.572754 2955.305908,2286.832275 
	C2932.173340,2340.117676 2901.570557,2388.725342 2864.233643,2433.128418 
	C2855.667236,2443.316162 2847.080322,2453.506348 2837.640137,2462.942627 
	C2714.586670,2585.947266 2591.795410,2709.215088 2468.438721,2831.914551 
	C2407.567627,2892.460938 2336.183350,2937.012695 2255.748291,2967.075684 
	C2214.047363,2982.661621 2171.082764,2993.195312 2127.019287,2999.167725 
	C2113.854004,3000.952393 2100.500000,3001.096436 2086.595703,3001.551758 
	C2059.291504,3002.000000 2032.583130,3002.000000 2004.937256,3002.000000 
z"/>
<path fill="#43BDAA" opacity="1.000000" stroke="none" 
	d="
M997.062683,2.000000 
	C1006.791504,5.632034 1016.262329,4.566459 1025.369873,5.495557 
	C1086.799438,11.762251 1145.834473,27.026440 1202.583008,51.238819 
	C1275.522827,82.359383 1339.549072,126.577026 1395.442993,182.722641 
	C1422.718994,210.121338 1450.366943,237.157013 1477.307861,264.880371 
	C1561.364990,351.378418 1629.939575,448.739136 1681.911987,557.708069 
	C1721.393799,640.487915 1749.899536,726.890869 1767.476318,816.852539 
	C1775.905151,859.993408 1781.680298,903.523010 1784.489868,947.449524 
	C1786.382935,977.049988 1788.072144,1006.656921 1787.417603,1036.297974 
	C1786.498657,1077.913818 1784.094238,1119.441162 1778.618042,1160.776978 
	C1774.769165,1189.830933 1770.019775,1218.696533 1764.056763,1247.376953 
	C1763.853271,1248.354614 1763.777710,1249.359253 1763.567993,1250.335205 
	C1761.079590,1261.912354 1761.056641,1261.960693 1750.304565,1257.798584 
	C1737.263184,1252.750610 1724.263184,1247.596436 1711.236694,1242.510010 
	C1640.831055,1215.017944 1570.437866,1187.494019 1500.000000,1160.085083 
	C1488.833374,1155.739868 1477.556030,1151.624878 1466.142944,1147.990845 
	C1460.589111,1146.222534 1458.955200,1143.504028 1459.806152,1137.823364 
	C1461.628906,1125.653198 1462.835938,1113.391113 1464.302856,1101.167480 
	C1468.162598,1069.007202 1468.828247,1036.704956 1468.031006,1004.384155 
	C1465.494385,901.543762 1442.906616,803.219727 1400.679688,709.440979 
	C1361.666504,622.799377 1308.030029,546.289307 1240.654785,479.340576 
	C1216.540283,455.378815 1192.508667,431.332855 1168.537476,407.227753 
	C1123.868530,362.309235 1070.346802,333.869019 1007.757446,324.807281 
	C921.041016,312.252472 843.266968,333.947754 775.995850,390.827118 
	C756.121826,407.631134 738.572815,426.901093 720.177490,445.250580 
	C616.590149,548.579712 513.212891,652.119446 409.728333,755.551636 
	C390.533508,774.736755 373.716187,795.756592 360.272278,819.353516 
	C339.192535,856.353027 326.873260,896.009338 323.484497,938.584473 
	C318.098785,1006.247986 334.715546,1067.967896 372.376648,1124.161011 
	C381.849854,1138.295654 392.695496,1151.393066 404.734619,1163.467896 
	C406.587067,1165.325928 408.863617,1166.881592 409.803131,1169.654907 
	C408.380890,1173.043945 404.809662,1172.622681 402.213196,1173.353027 
	C301.573334,1201.655396 204.617447,1239.437866 111.105873,1286.125977 
	C109.615700,1286.869995 108.145073,1287.657837 106.628166,1288.342773 
	C100.367157,1291.170288 100.274658,1291.214478 96.421989,1285.197144 
	C84.913513,1267.222290 74.510437,1248.607056 65.120819,1229.453979 
	C42.140118,1182.577881 25.369755,1133.564697 15.246471,1082.321533 
	C10.534692,1058.470947 6.788523,1034.480469 5.264489,1009.291504 
	C3.436152,1001.489075 3.783452,994.356262 2.462649,986.674194 
	C2.000000,967.958191 2.000000,949.916443 2.000000,930.937317 
	C5.104337,917.004028 3.674989,903.652954 5.167220,890.493225 
	C12.592335,825.012329 30.496428,762.649597 58.581367,703.032959 
	C83.618309,649.886414 116.014381,601.712830 154.388565,557.406006 
	C157.447266,553.874451 160.809448,550.639771 164.106903,547.342163 
	C289.209259,422.231934 414.387329,297.197296 539.378479,171.976074 
	C576.378601,134.907837 618.228394,104.412422 663.557739,78.536842 
	C733.330261,38.708221 808.332092,14.488546 887.965759,4.630927 
	C902.129456,2.877636 916.494934,2.779874 931.402039,2.448930 
	C953.375122,2.000000 974.750244,2.000000 997.062683,2.000000 
z"/>
<path fill="#FFFFFF" opacity="1.000000" stroke="none" 
	d="
M931.062683,2.000000 
	C921.758362,5.389853 910.982239,4.428628 900.487549,5.553473 
	C851.942322,10.756620 804.671570,21.258936 758.722961,37.711300 
	C671.343872,68.998230 595.570251,118.240227 530.125549,184.011612 
	C413.100708,301.620605 295.391571,418.548981 178.433350,536.223877 
	C92.746727,622.435547 38.557079,725.753662 14.559872,844.838928 
	C10.093184,867.004761 6.871319,889.420471 5.547473,912.064331 
	C5.219364,917.676514 3.875376,923.229431 2.499178,929.404785 
	C2.000000,620.812317 2.000000,311.624695 2.000000,2.000000 
	C311.375000,2.000000 620.750183,2.000000 931.062683,2.000000 
z"/>
<path fill="#FFFFFF" opacity="1.000000" stroke="none" 
	d="
M2.000000,2076.937256 
	C5.271198,2081.341553 5.047279,2087.482666 5.556622,2093.328369 
	C17.729166,2233.030518 71.904449,2354.027100 167.160965,2456.761719 
	C172.820679,2462.865967 178.641098,2468.827393 184.526901,2474.715088 
	C300.173950,2590.395264 415.922455,2705.973633 531.478394,2821.744873 
	C614.768921,2905.190430 713.602356,2960.531006 828.521912,2987.001709 
	C856.779602,2993.510254 885.385315,2997.893555 915.203735,3000.000000 
	C916.387390,3000.300293 916.683899,3000.656738 916.490234,3001.506592 
	C611.478210,3002.000000 306.956390,3002.000000 2.000000,3002.000000 
	C2.000000,2693.958252 2.000000,2385.916504 2.000000,2076.937256 
z"/>
<path fill="#FFFFFF" opacity="1.000000" stroke="none" 
	d="
M3002.000000,913.062683 
	C3000.133789,912.141785 3000.419434,909.705139 3000.325439,907.420166 
	C2998.604004,865.535339 2989.607422,824.944580 2977.470703,785.071777 
	C2948.302734,689.247498 2898.178955,605.763672 2827.449707,534.860474 
	C2708.852051,415.971466 2590.237549,297.097656 2471.182373,178.667465 
	C2381.426758,89.382698 2273.787109,33.980896 2149.140625,11.622209 
	C2130.112305,8.208961 2110.946289,6.008945 2090.861328,4.075820 
	C2089.670654,3.670467 2089.344727,3.335658 2089.509277,2.500425 
	C2393.854248,2.000000 2697.708252,2.000000 3002.000000,2.000000 
	C3002.000000,305.374969 3002.000000,608.750183 3002.000000,913.062683 
z"/>
<path fill="#FFFFFF" opacity="1.000000" stroke="none" 
	d="
M2086.937256,3002.000000 
	C2094.458496,2998.368164 2103.622070,2999.558594 2112.405273,2998.565186 
	C2167.000977,2992.387451 2219.740723,2979.145264 2270.658936,2958.605469 
	C2346.755615,2927.908691 2413.697510,2883.316406 2471.709961,2825.360107 
	C2591.237305,2705.948486 2711.043701,2586.812988 2830.006348,2466.840820 
	C2912.539307,2383.607178 2965.713623,2284.043457 2990.327637,2169.311768 
	C2995.853027,2143.556641 2999.685059,2117.609619 3001.498535,2090.648926 
	C3002.000000,2393.854492 3002.000000,2697.708984 3002.000000,3002.000000 
	C2697.291748,3002.000000 2392.583008,3002.000000 2086.937256,3002.000000 
z"/>
<path fill="#4BB2AD" opacity="1.000000" stroke="none" 
	d="
M916.937317,3002.000000 
	C916.195496,3001.665039 916.390930,3001.330322 916.338623,3000.469727 
	C947.384583,2999.852051 978.678406,2999.760254 1010.891052,2999.778076 
	C1011.652222,3000.256592 1011.494446,3000.625732 1011.668335,3001.497559 
	C980.624878,3002.000000 949.249756,3002.000000 916.937317,3002.000000 
z"/>
<path fill="#B7E5DE" opacity="1.000000" stroke="none" 
	d="
M2.000000,986.916138 
	C5.463078,992.498840 5.817806,999.538574 5.353222,1007.545410 
	C4.422089,1008.284546 3.735856,1008.156555 2.524811,1008.014282 
	C2.000000,1001.277405 2.000000,994.554871 2.000000,986.916138 
z"/>
<path fill="#98D3D0" opacity="1.000000" stroke="none" 
	d="
M1996.963501,4.230080 
	C1996.104370,3.718372 1996.160278,3.372899 1996.108154,2.513713 
	C2005.378540,2.000000 2014.756958,2.000000 2025.067749,2.000000 
	C2016.790283,4.724582 2007.263062,3.721637 1996.963501,4.230080 
z"/>
<path fill="#90D0CD" opacity="1.000000" stroke="none" 
	d="
M2089.070801,2.000000 
	C2089.936768,2.334098 2089.873291,2.668195 2089.903320,3.503784 
	C2081.084961,4.575288 2072.224121,4.005182 2062.695312,2.410460 
	C2070.713867,2.000000 2079.427490,2.000000 2089.070801,2.000000 
z"/>
<path fill="#98D3D0" opacity="1.000000" stroke="none" 
	d="
M3000.594727,1021.979004 
	C2999.534668,1015.806274 2999.667480,1009.567078 3001.634033,1002.708618 
	C3002.000000,1008.061218 3002.000000,1014.122375 3002.000000,1021.091797 
	C3002.000000,1022.000000 3001.057373,1021.868164 3000.594727,1021.979004 
z"/>
</svg>