<?xml version="1.0" encoding="UTF-8" standalone="no"?>
<svg
   xmlns:dc="http://purl.org/dc/elements/1.1/"
   xmlns:cc="http://creativecommons.org/ns#"
   xmlns:rdf="http://www.w3.org/1999/02/22-rdf-syntax-ns#"
   xmlns:svg="http://www.w3.org/2000/svg"
   xmlns="http://www.w3.org/2000/svg"
   id="svg20"
   xml:space="preserve"
   viewBox="0 0 1024 768"
   y="0px"
   x="0px"
   version="1.1"><metadata
     id="metadata26"><rdf:RDF><cc:Work
         rdf:about=""><dc:format>image/svg+xml</dc:format><dc:type
           rdf:resource="http://purl.org/dc/dcmitype/StillImage" /></cc:Work></rdf:RDF></metadata><defs
     id="defs24" /><g
     style="fill:#ffffff"
     id="logo-group"><path
       style="stroke-width:0.75"
       d="m 511.8932,262.67157 c -0.65344,0.003 -1.52622,0.02 -1.93905,0.038 -0.41283,0.0179 -1.04125,0.0534 -1.39695,0.0788 -0.35528,0.0254 -0.92783,0.0746 -1.27185,0.10884 -0.34403,0.0346 -0.93491,0.10008 -1.31355,0.14553 -0.37822,0.0454 -0.99746,0.13052 -1.3761,0.18849 -0.37822,0.0584 -1.04125,0.17138 -1.47326,0.25061 -0.4316,0.0792 -1.08837,0.20975 -1.4595,0.29024 -0.37071,0.0801 -1.04375,0.23894 -1.49578,0.35236 -0.45161,0.11384 -1.06127,0.27439 -1.35525,0.35695 -0.29357,0.0826 -0.91823,0.26938 -1.38861,0.41533 -0.46996,0.14595 -1.19262,0.38531 -1.60545,0.53251 -0.41283,0.1472 -1.03208,0.37614 -1.3761,0.50874 -0.34403,0.13219 -1.00997,0.40491 -1.48035,0.60507 -0.46996,0.20058 -1.16426,0.50874 -1.5429,0.68513 -0.37822,0.17639 -1.06335,0.51416 -1.52205,0.7506 -0.4587,0.23644 -1.08712,0.57087 -1.39695,0.74309 -0.30941,0.17181 -0.72475,0.40658 -0.9224,0.52125 -0.19766,0.11468 -0.58255,0.34445 -0.85485,0.51083 -0.27272,0.16638 -0.81441,0.51082 -1.2043,0.76561 -0.38989,0.25479 -0.92449,0.61216 -1.18845,0.79439 -0.26354,0.18181 -0.87361,0.62466 -1.35525,0.9837 -0.48164,0.35945 -1.19471,0.9124 -1.5846,1.2289 -0.3899,0.31692 -0.92449,0.76478 -1.18845,0.99496 -0.26354,0.2306 -0.67637,0.59798 -0.9174,0.8169 -0.24061,0.21851 -0.87612,0.82942 -1.41196,1.35734 -0.53543,0.52792 -1.25809,1.26935 -1.60587,1.64798 -0.34736,0.37822 -0.76436,0.83817 -0.92657,1.02165 -0.16222,0.18348 -0.54377,0.63384 -0.84776,1.0008 -0.304,0.36696 -0.81107,1.00497 -1.12674,1.4178 -0.31567,0.41283 -0.74893,0.99455 -0.96285,1.2927 -0.21392,0.29816 -0.61633,0.87987 -0.89405,1.2927 -0.27814,0.41283 -0.68555,1.04125 -0.90572,1.39695 -0.22018,0.35529 -0.54919,0.89947 -0.731,1.2093 -0.18182,0.30983 -0.51,0.89113 -0.72934,1.2927 -0.21892,0.40116 -0.59547,1.12382 -0.83608,1.60545 -0.24061,0.48164 -0.58088,1.1897 -0.75602,1.57334 -0.17514,0.38364 -0.48456,1.09671 -0.68764,1.5846 -0.20307,0.48789 -0.49539,1.22473 -0.6501,1.63756 -0.15471,0.41283 -0.40199,1.10714 -0.54961,1.5429 -0.14761,0.43577 -0.37905,1.15801 -0.51416,1.60545 -0.13552,0.44703 -0.34277,1.17886 -0.46078,1.6263 -0.11801,0.44703 -0.23227,0.88279 -0.25395,0.96828 -0.0346,0.13636 -0.0605,0.16054 -0.21518,0.20016 -0.0967,0.025 -0.36362,0.10216 -0.59297,0.17222 -0.22935,0.0696 -0.62342,0.21058 -0.8757,0.31317 -0.25229,0.10258 -0.67429,0.30023 -0.93825,0.43951 -0.26396,0.13928 -0.68596,0.38781 -0.93825,0.55253 -0.25229,0.16471 -0.65511,0.45745 -0.89572,0.65093 -0.24019,0.19349 -0.64384,0.55837 -0.89655,0.81065 -0.25312,0.25229 -0.61841,0.65553 -0.81148,0.89655 -0.19349,0.24061 -0.49915,0.66303 -0.67971,0.93825 -0.18014,0.27522 -0.43827,0.71724 -0.57337,0.98245 -0.13511,0.26522 -0.32985,0.68722 -0.43243,0.93825 -0.103,0.25104 -0.2527,0.67263 -0.33277,0.93742 -0.0801,0.2648 -0.19265,0.70556 -0.24978,0.97995 -0.0571,0.27439 -0.12844,0.67679 -0.15846,0.89488 -0.0313,0.22852 -0.0546,0.79314 -0.0546,1.3344 0,0.54127 0.0233,1.10589 0.0546,1.3344 0.03,0.21768 0.10133,0.6205 0.15846,0.89489 0.0571,0.27438 0.16972,0.71515 0.24978,0.97995 0.0801,0.26479 0.22977,0.68637 0.33277,0.93741 0.10258,0.25104 0.29732,0.67304 0.43243,0.93825 0.1351,0.26521 0.39323,0.70723 0.57337,0.98245 0.18056,0.27522 0.48622,0.69722 0.67971,0.93825 0.19307,0.24061 0.55836,0.64426 0.81148,0.89655 0.25271,0.25229 0.65636,0.61716 0.89655,0.81065 0.24061,0.19349 0.6451,0.48747 0.89906,0.65344 0.25437,0.16596 0.69555,0.42325 0.97995,0.57212 0.28481,0.14845 0.7335,0.35571 0.99746,0.45996 0.26396,0.10425 0.71307,0.25686 0.99871,0.33901 0.28565,0.0822 0.52542,0.15554 0.53335,0.16305 0.008,0.008 0.098,0.33068 0.20099,0.71807 0.10342,0.38698 0.28148,1.02291 0.39657,1.4128 0.11467,0.3899 0.35111,1.14049 0.52542,1.668 0.17389,0.52751 0.4341,1.2781 0.57754,1.668 0.14345,0.3899 0.35862,0.95285 0.47789,1.251 0.11926,0.29816 0.32025,0.78605 0.44744,1.0842 0.12676,0.29816 0.36154,0.83234 0.52166,1.18679 0.16013,0.35486 0.5346,1.13131 0.83192,1.72554 0.29732,0.59422 0.72891,1.4203 0.9591,1.83564 0.2306,0.41532 0.64009,1.12339 0.91031,1.57292 0.27022,0.44953 0.6843,1.11631 0.91948,1.48076 0.23561,0.36488 0.66262,1.00122 0.9491,1.41405 0.28648,0.41283 0.76102,1.07252 1.05501,1.46576 0.29356,0.39364 0.72224,0.95159 0.95284,1.24057 l 0.41867,0.525 v 10.16063 l 0.29357,0.47329 c 0.16179,0.2602 0.47871,0.71849 0.70473,1.01831 0.22601,0.30024 0.56712,0.73309 0.75852,0.96244 0.19099,0.22935 0.72266,0.79813 1.18136,1.26434 0.4587,0.46579 1.07503,1.0571 1.37026,1.31355 0.29482,0.25646 0.80106,0.67679 1.12424,0.93408 0.32317,0.25729 0.86569,0.66679 1.20554,0.90989 0.34027,0.24312 0.94159,0.65094 1.33732,0.90574 0.39532,0.25478 1.07544,0.66761 1.51121,0.91739 0.43576,0.24978 1.30855,0.7114 1.93905,1.02583 0.63092,0.31441 1.55041,0.7435 2.0433,0.95325 0.49331,0.21018 1.1872,0.49332 1.5429,0.62884 0.3557,0.13595 0.97495,0.36154 1.3761,0.50123 0.40157,0.1397 1.00205,0.33986 1.3344,0.44494 0.33277,0.10467 0.97078,0.29482 1.4178,0.42242 0.44744,0.12761 1.26351,0.34153 1.81395,0.47538 0.55044,0.13344 1.31063,0.309 1.68885,0.38948 0.37864,0.0805 0.99788,0.20349 1.3761,0.27355 0.37864,0.0696 0.96953,0.17348 1.31355,0.2306 0.34402,0.0567 0.8978,0.1422 1.23015,0.18974 0.33277,0.0471 0.97078,0.13135 1.4178,0.18682 0.44744,0.0554 1.19804,0.13886 1.668,0.18556 0.47038,0.0467 1.08962,0.10383 1.3761,0.12677 0.2869,0.0233 0.9812,0.07 1.5429,0.10425 0.56212,0.0337 1.70678,0.0834 2.5437,0.11009 0.9124,0.0288 2.28182,0.038 3.4194,0.0225 1.04375,-0.0137 2.30101,-0.0446 2.7939,-0.0684 0.49331,-0.0238 1.31897,-0.0717 1.8348,-0.10592 0.51625,-0.0346 1.34191,-0.10049 1.8348,-0.14637 0.49331,-0.0459 1.22515,-0.12135 1.6263,-0.16805 0.40157,-0.0467 1.06752,-0.13177 1.48035,-0.18932 0.41283,-0.0575 1.08837,-0.15887 1.5012,-0.22518 0.41283,-0.0668 1.15426,-0.19766 1.64715,-0.29148 0.49289,-0.0938 1.34691,-0.27272 1.89735,-0.3974 0.55044,-0.1251 1.42322,-0.33861 1.93905,-0.47496 0.51625,-0.13636 1.25726,-0.34403 1.64715,-0.46204 0.38989,-0.11801 1.0375,-0.3236 1.43865,-0.45745 0.40157,-0.13344 1.06752,-0.36946 1.48035,-0.52417 0.41283,-0.15429 1.04167,-0.40199 1.39695,-0.5496 0.3557,-0.14763 0.89905,-0.38156 1.20805,-0.51959 0.30858,-0.13844 0.93741,-0.4391 1.39695,-0.66886 0.45953,-0.22935 1.04166,-0.53043 1.29395,-0.66804 0.25228,-0.13803 0.7777,-0.43993 1.1676,-0.67137 0.38989,-0.23143 1.0475,-0.64719 1.46116,-0.92407 0.41367,-0.27689 0.97662,-0.67012 1.251,-0.87404 0.27439,-0.20349 0.73351,-0.55919 1.01999,-0.78979 0.2869,-0.2306 0.76519,-0.63759 1.06335,-0.90447 0.29815,-0.26647 0.87987,-0.82983 1.29312,-1.25184 0.41283,-0.42158 0.90739,-0.95451 1.09921,-1.18386 0.1914,-0.22935 0.5325,-0.6622 0.75852,-0.96244 0.22602,-0.29982 0.54294,-0.75811 0.70473,-1.01831 l 0.29357,-0.4733 V 342.6021 l 0.42993,-0.51 c 0.23644,-0.28063 0.65635,-0.80105 0.93324,-1.15675 0.27689,-0.3557 0.70515,-0.92783 0.95201,-1.27185 0.24687,-0.34403 0.67846,-0.97286 0.9591,-1.39695 0.28064,-0.42451 0.73518,-1.14675 1.00956,-1.60545 0.2748,-0.4587 0.64635,-1.09671 0.82566,-1.4178 0.17931,-0.32109 0.56336,-1.05292 0.8536,-1.6263 0.28981,-0.57337 0.65552,-1.32397 0.81232,-1.668 0.15637,-0.34402 0.42951,-0.96327 0.60631,-1.3761 0.17723,-0.41283 0.49498,-1.20096 0.70682,-1.7514 0.21141,-0.55044 0.56962,-1.55458 0.79521,-2.23095 0.22603,-0.67679 0.51417,-1.58668 0.64094,-2.02245 0.12634,-0.43577 0.31442,-1.10922 0.41783,-1.4962 0.103,-0.38739 0.19474,-0.71098 0.20308,-0.71932 0.008,-0.009 0.2185,-0.0725 0.46621,-0.14219 0.24769,-0.0697 0.63092,-0.19308 0.85109,-0.27481 0.2206,-0.0813 0.68221,-0.28565 1.02624,-0.45411 0.34403,-0.16848 0.85068,-0.45412 1.1259,-0.63467 0.27522,-0.18099 0.69681,-0.48706 0.93742,-0.68056 0.24018,-0.19348 0.64384,-0.55836 0.89655,-0.81064 0.25312,-0.25229 0.61841,-0.65594 0.81148,-0.89655 0.19349,-0.24103 0.49915,-0.66303 0.67971,-0.93825 0.18015,-0.27522 0.4466,-0.73517 0.59172,-1.02165 0.14553,-0.2869 0.34986,-0.73726 0.45494,-1.0008 0.10468,-0.26396 0.25771,-0.71348 0.33986,-0.99913 0.0821,-0.28564 0.19516,-0.77353 0.25104,-1.0842 0.0559,-0.31066 0.12051,-0.78062 0.14428,-1.04417 0.0233,-0.26396 0.0425,-0.68596 0.0425,-0.93825 0,-0.25228 -0.0192,-0.6747 -0.0425,-0.93825 -0.0238,-0.26396 -0.0884,-0.7335 -0.14428,-1.04416 -0.0559,-0.31067 -0.16805,-0.79522 -0.24896,-1.0767 -0.0809,-0.28147 -0.23143,-0.72725 -0.33443,-0.99037 -0.10299,-0.26313 -0.2994,-0.69848 -0.43618,-0.96661 -0.13719,-0.26855 -0.38363,-0.69472 -0.54752,-0.94701 -0.16388,-0.25228 -0.43993,-0.63717 -0.61299,-0.85485 -0.17305,-0.21809 -0.55544,-0.63342 -0.85027,-0.92282 l -0.53542,-0.52709 0.0104,-11.05675 0.0104,-11.05717 0.34194,-0.1397 c 0.18765,-0.0771 0.45995,-0.211 0.60465,-0.29815 0.14428,-0.0867 0.39698,-0.25771 0.56087,-0.37989 0.16388,-0.12218 0.45744,-0.3899 0.6526,-0.59506 0.19516,-0.20516 0.45953,-0.53001 0.58755,-0.72266 0.1276,-0.19224 0.32568,-0.54502 0.43952,-0.78396 0.11384,-0.23852 0.25562,-0.60298 0.31567,-0.8094 0.0596,-0.20641 0.13761,-0.56295 0.17305,-0.7923 0.0438,-0.28481 0.0575,-0.57546 0.0433,-0.9174 -0.0117,-0.27522 -0.0526,-0.65052 -0.0909,-0.834 -0.0379,-0.18348 -0.11592,-0.47329 -0.17264,-0.64343 -0.0567,-0.17055 -0.16721,-0.44827 -0.2452,-0.61716 -0.078,-0.1693 -0.26688,-0.49873 -0.41908,-0.73267 -0.19599,-0.30065 -0.42617,-0.57296 -0.78396,-0.92824 -0.28773,-0.28564 -0.65052,-0.59756 -0.83984,-0.72224 -0.18348,-0.12052 -0.50248,-0.30149 -0.70889,-0.40199 -0.20642,-0.1005 -0.51583,-0.22893 -0.68806,-0.28606 -0.1718,-0.0567 -0.47204,-0.1372 -0.6672,-0.1789 -0.25479,-0.0542 -0.53584,-0.0751 -1.0008,-0.0751 -0.46495,0 -0.74601,0.0208 -1.00079,0.0751 -0.19474,0.0417 -0.49415,0.12218 -0.66429,0.17931 -0.17055,0.0567 -0.44827,0.16722 -0.61716,0.2452 -0.16929,0.078 -0.49872,0.26688 -0.73266,0.41992 -0.29065,0.18973 -0.5788,0.43118 -0.91032,0.76269 -0.33151,0.33152 -0.57295,0.61966 -0.76269,0.91031 -0.15303,0.23394 -0.34194,0.56337 -0.41991,0.73267 -0.078,0.16889 -0.1885,0.44661 -0.2452,0.61716 -0.0572,0.17014 -0.13803,0.46913 -0.17973,0.66428 -0.0571,0.26647 -0.0755,0.53001 -0.0743,1.06335 0.002,0.5004 0.0233,0.81649 0.0746,1.07461 0.0401,0.201 0.12885,0.53751 0.19766,0.74768 0.0684,0.21017 0.21892,0.56254 0.33402,0.78229 0.11509,0.22018 0.29231,0.51208 0.39406,0.64927 0.10217,0.13678 0.31734,0.38364 0.47913,0.54878 0.1618,0.16471 0.4341,0.40532 0.60591,0.53459 0.1718,0.12885 0.47454,0.32109 0.67262,0.42659 0.19848,0.1055 0.49372,0.24353 0.65594,0.3065 l 0.29565,0.11509 0.0104,9.94878 0.0104,9.94837 h -0.0676 c -0.0371,0 -0.23603,-0.0759 -0.44203,-0.16888 -0.206,-0.0926 -0.42909,-0.17931 -0.49539,-0.19266 -0.0959,-0.0192 -0.12844,-0.055 -0.15929,-0.17514 -0.0213,-0.0834 -0.11468,-0.44285 -0.20725,-0.79938 -0.0926,-0.35654 -0.29024,-1.06002 -0.4391,-1.56375 -0.14887,-0.50374 -0.40075,-1.30063 -0.56004,-1.77059 -0.15888,-0.47037 -0.41574,-1.19262 -0.57045,-1.60545 -0.15471,-0.41283 -0.44536,-1.14466 -0.64635,-1.6263 -0.20058,-0.48163 -0.50958,-1.1947 -0.6868,-1.5846 -0.17681,-0.38989 -0.55295,-1.16885 -0.83567,-1.73055 -0.28314,-0.56211 -0.71891,-1.38777 -0.96911,-1.8348 -0.2502,-0.44744 -0.62967,-1.10421 -0.84359,-1.4595 -0.21392,-0.3557 -0.5763,-0.93741 -0.80522,-1.2927 -0.22894,-0.3557 -0.60424,-0.91865 -0.83442,-1.251 -0.22977,-0.33276 -0.5396,-0.77353 -0.68847,-0.97995 -0.14845,-0.20641 -0.50582,-0.68429 -0.79355,-1.0621 -0.28773,-0.37738 -0.70056,-0.9028 -0.9174,-1.1676 -0.21643,-0.26437 -0.6109,-0.73433 -0.87653,-1.04375 -0.26564,-0.30983 -0.78521,-0.89154 -1.15509,-1.2927 -0.3703,-0.40157 -1.13049,-1.18011 -1.68969,-1.73055 -0.55961,-0.55044 -1.27018,-1.22723 -1.58001,-1.50328 -0.30983,-0.27647 -0.75977,-0.67095 -1.0008,-0.87654 -0.24061,-0.20558 -0.71933,-0.59964 -1.06335,-0.8757 -0.34403,-0.27605 -0.88821,-0.69931 -1.2093,-0.94075 -0.32109,-0.24144 -0.78062,-0.57963 -1.02165,-0.75143 -0.24061,-0.17181 -0.6722,-0.47205 -0.9591,-0.6672 -0.28648,-0.19516 -0.80273,-0.53335 -1.14675,-0.75185 -0.34403,-0.21809 -0.81315,-0.50999 -1.0425,-0.64802 -0.22935,-0.13845 -0.66095,-0.39115 -0.9591,-0.56212 -0.29816,-0.17097 -0.88446,-0.49373 -1.30271,-0.71724 -0.41867,-0.22351 -1.14091,-0.59005 -1.60545,-0.8144 -0.46454,-0.22476 -1.07919,-0.51249 -1.36609,-0.64009 -0.28648,-0.12761 -0.8119,-0.35278 -1.1676,-0.5004 -0.35528,-0.14762 -0.91823,-0.3728 -1.251,-0.5004 -0.33235,-0.1276 -0.95868,-0.35612 -1.39153,-0.50749 -0.43243,-0.15179 -1.0892,-0.36988 -1.4595,-0.48414 -0.36988,-0.11467 -1.07836,-0.32067 -1.57376,-0.45786 -0.49581,-0.1372 -1.29353,-0.34153 -1.77225,-0.45412 -0.47913,-0.11259 -1.20888,-0.27063 -1.62171,-0.35195 -0.41283,-0.0809 -1.08837,-0.20391 -1.5012,-0.27313 -0.41283,-0.0688 -1.09754,-0.17222 -1.52205,-0.22935 -0.42409,-0.0571 -1.14675,-0.14136 -1.60545,-0.18723 -0.4587,-0.0459 -1.11548,-0.103 -1.4595,-0.12761 -0.34403,-0.0246 -1.0475,-0.0625 -1.56375,-0.0851 -0.51583,-0.0221 -1.47284,-0.0375 -2.1267,-0.0342 z m 0.56295,5.64451 c 0.9174,0.009 1.95907,0.0359 2.31435,0.06 0.3557,0.0242 0.95618,0.0726 1.3344,0.10758 0.37864,0.035 0.98829,0.10092 1.35525,0.14637 0.36696,0.0454 0.97703,0.1301 1.35525,0.18848 0.37864,0.058 1.19471,0.20683 1.81395,0.3311 0.61925,0.12385 1.43573,0.30191 1.81395,0.39573 0.37822,0.0934 1.05418,0.27356 1.5012,0.39991 0.44744,0.12593 1.28227,0.38614 1.85565,0.57754 0.57337,0.1914 1.38527,0.48039 1.80395,0.6426 0.41866,0.16179 1.06626,0.4245 1.43864,0.58422 0.37238,0.15929 1.00581,0.44243 1.40696,0.62925 0.40157,0.18681 1.04876,0.5054 1.43865,0.70806 0.38989,0.20267 0.93408,0.49415 1.2093,0.64844 0.27522,0.15387 0.8144,0.46662 1.19804,0.69514 0.38406,0.22851 1.0938,0.67762 1.57751,0.99788 0.48373,0.31984 1.19221,0.81023 1.57459,1.08879 0.38281,0.27897 0.95827,0.71307 1.27936,0.96535 0.32109,0.25229 0.80898,0.6476 1.0842,0.8782 0.27522,0.23102 0.75352,0.64469 1.06335,0.91949 0.30983,0.27438 1.07044,1.00664 1.69051,1.62672 0.62009,0.62008 1.34483,1.37109 1.61004,1.66925 0.26522,0.29815 0.73351,0.84359 1.04042,1.21263 0.30733,0.36863 0.76645,0.94076 1.01998,1.27185 0.25354,0.33068 0.64927,0.86403 0.87903,1.18512 0.22978,0.32109 0.58673,0.83692 0.79273,1.14675 0.20641,0.30983 0.54543,0.8365 0.75393,1.17093 0.20808,0.33402 0.57087,0.94409 0.80606,1.35525 0.23519,0.41075 0.67429,1.23516 0.97578,1.83147 0.30149,0.59631 0.71391,1.4595 0.91656,1.9182 0.20225,0.4587 0.50416,1.18094 0.67096,1.60545 0.16638,0.4245 0.40575,1.06335 0.53209,1.4203 0.12594,0.35695 0.3336,0.98537 0.46162,1.39695 0.12802,0.41158 0.32735,1.09421 0.44327,1.51746 0.11552,0.42284 0.32109,1.28603 0.45703,1.9182 0.13595,0.63176 0.31276,1.48661 0.39365,1.89944 0.0805,0.41283 0.20308,1.07878 0.27272,1.48035 0.0692,0.40115 0.17306,1.05793 0.23019,1.4595 0.0575,0.40115 0.1326,0.97369 0.16679,1.27185 0.0346,0.29815 0.0917,0.88904 0.12719,1.31355 0.0355,0.42409 0.0759,1.34357 0.0897,2.0433 0.015,0.75143 0.006,1.71554 -0.0229,2.35605 -0.0267,0.59631 -0.0767,1.42197 -0.11134,1.8348 -0.0346,0.41283 -0.10926,1.11631 -0.16597,1.56375 -0.0563,0.44702 -0.15971,1.14133 -0.22935,1.5429 -0.0692,0.40115 -0.20975,1.1063 -0.31192,1.56667 -0.10174,0.45995 -0.2869,1.20138 -0.41074,1.64715 -0.12427,0.44578 -0.31359,1.13841 -0.42117,1.53998 -0.10759,0.40115 -0.31442,1.11464 -0.45954,1.5846 -0.14553,0.47038 -0.38947,1.20221 -0.54293,1.6263 -0.15304,0.42451 -0.40616,1.09046 -0.5617,1.48035 -0.15596,0.38989 -0.39114,0.95284 -0.5225,1.251 -0.13177,0.29816 -0.42117,0.9174 -0.64343,1.3761 -0.22226,0.4587 -0.58839,1.17177 -0.81315,1.5846 -0.22518,0.41283 -0.60465,1.07586 -0.84359,1.47367 -0.23852,0.39741 -0.61383,0.99789 -0.83358,1.33441 -0.21976,0.3361 -0.61967,0.92073 -0.88863,1.29937 -0.26938,0.37822 -0.69139,0.95076 -0.93867,1.27185 -0.24686,0.32109 -0.72308,0.91157 -1.05876,1.31272 -0.33527,0.40073 -0.81524,0.95409 -1.06669,1.23015 -0.25103,0.27563 -0.9174,0.97744 -1.48035,1.55916 -0.56295,0.58213 -1.35149,1.36318 -1.75307,1.73555 -0.40115,0.3728 -0.93616,0.85735 -1.18845,1.0767 -0.25228,0.21934 -0.70264,0.59839 -1.00079,0.84275 -0.29816,0.24437 -0.83275,0.66428 -1.18846,0.93367 -0.35528,0.26897 -0.89988,0.66844 -1.20972,0.88779 -0.30982,0.21935 -0.8636,0.59506 -1.23014,0.83525 -0.36654,0.23978 -0.99496,0.63301 -1.39653,0.87362 -0.40116,0.2406 -1.05793,0.61632 -1.45951,0.83566 -0.40115,0.21893 -1.01122,0.53876 -1.35524,0.71057 -0.34403,0.17222 -0.93575,0.45453 -1.31522,0.62759 -0.37947,0.17305 -0.98954,0.43951 -1.35525,0.59172 -0.36613,0.15263 -0.99371,0.3999 -1.39528,0.54961 -0.40116,0.1497 -1.06753,0.38447 -1.48036,0.52125 -0.41282,0.13719 -1.10713,0.35236 -1.5429,0.47829 -0.43576,0.12594 -1.1676,0.32193 -1.6263,0.43577 -0.45869,0.11384 -1.1997,0.28064 -1.64715,0.37113 -0.44702,0.0905 -1.09003,0.21184 -1.42822,0.26938 -0.33819,0.058 -0.95827,0.15137 -1.37818,0.20851 -0.41951,0.0567 -1.14675,0.14093 -1.61588,0.18639 -0.46913,0.0459 -1.19054,0.10675 -1.60336,0.13594 -0.43869,0.0309 -1.53874,0.0529 -2.64796,0.0529 -1.11881,0 -2.20551,-0.0221 -2.64795,-0.0534 -0.41283,-0.0292 -1.05084,-0.0809 -1.4178,-0.11468 -0.36696,-0.0337 -0.97661,-0.10008 -1.35525,-0.14678 -0.37821,-0.0471 -0.98829,-0.13219 -1.35525,-0.1889 -0.36696,-0.0571 -1.01039,-0.16888 -1.42947,-0.24812 -0.4195,-0.0792 -1.1626,-0.23602 -1.65132,-0.34861 -0.48914,-0.11217 -1.2435,-0.30107 -1.67718,-0.41992 -0.43326,-0.11842 -1.11505,-0.31858 -1.51496,-0.4441 -0.3999,-0.12594 -1.06835,-0.34903 -1.48577,-0.4954 -0.417,-0.14678 -1.15008,-0.42451 -1.6288,-0.61757 -0.47913,-0.19266 -1.11464,-0.4587 -1.4128,-0.59048 -0.29815,-0.13218 -0.93616,-0.43326 -1.4178,-0.66928 -0.48163,-0.23603 -1.16801,-0.58797 -1.52496,-0.78188 -0.35696,-0.1939 -1.00456,-0.56461 -1.43865,-0.82315 -0.4341,-0.25896 -1.13633,-0.69932 -1.56084,-0.97912 -0.42408,-0.27981 -1.09962,-0.74851 -1.5012,-1.04167 -0.40115,-0.29315 -0.99996,-0.74934 -1.32981,-1.01373 -0.32985,-0.26437 -0.86527,-0.7089 -1.18928,-0.98829 -0.32443,-0.27939 -0.91031,-0.80981 -1.30229,-1.17885 -0.39198,-0.36905 -1.13299,-1.1134 -1.64632,-1.65424 -0.51333,-0.54085 -1.15509,-1.22223 -1.42656,-1.51413 -0.27146,-0.29231 -0.73308,-0.81273 -1.02582,-1.15676 -0.29273,-0.34402 -0.74726,-0.89905 -1.01039,-1.23307 -0.26312,-0.33402 -0.65469,-0.84984 -0.87028,-1.14675 -0.21559,-0.29648 -0.62008,-0.87695 -0.89905,-1.28978 -0.27855,-0.41283 -0.67554,-1.0229 -0.88154,-1.35525 -0.20641,-0.33277 -0.56795,-0.94242 -0.80356,-1.35525 -0.2356,-0.41283 -0.63092,-1.14466 -0.87861,-1.6263 -0.24812,-0.48163 -0.58547,-1.16676 -0.74977,-1.52205 -0.16472,-0.3557 -0.43535,-0.96535 -0.60173,-1.35525 -0.16597,-0.38989 -0.42451,-1.02832 -0.57463,-1.41863 -0.15012,-0.39031 -0.38822,-1.04709 -0.52917,-1.4595 -0.14136,-0.41242 -0.3507,-1.05918 -0.46537,-1.4374 -0.11509,-0.37822 -0.3678,-1.26018 -0.5617,-1.9599 -0.19432,-0.69972 -0.43618,-1.64757 -0.53835,-2.10627 -0.10175,-0.4587 -0.24186,-1.1626 -0.31108,-1.56375 -0.0696,-0.40157 -0.17306,-1.09587 -0.22935,-1.5429 -0.0567,-0.44744 -0.13177,-1.16051 -0.1668,-1.5846 -0.0354,-0.42451 -0.0826,-1.18428 -0.1055,-1.68885 -0.0229,-0.50457 -0.0417,-1.41488 -0.0417,-2.02245 0,-0.60799 0.0188,-1.51788 0.0417,-2.02245 0.0229,-0.50457 0.0701,-1.26476 0.1055,-1.68885 0.035,-0.42451 0.11009,-1.13758 0.1668,-1.5846 0.0563,-0.44744 0.15971,-1.14175 0.22935,-1.5429 0.0692,-0.40157 0.20975,-1.10588 0.3115,-1.56542 0.10216,-0.45995 0.38114,-1.53873 0.62008,-2.39775 0.23936,-0.85944 0.54126,-1.89985 0.67137,-2.31268 0.1301,-0.41283 0.35903,-1.08837 0.50832,-1.5012 0.14929,-0.41283 0.40157,-1.07544 0.56003,-1.47243 0.15846,-0.39698 0.43076,-1.04417 0.60507,-1.43865 0.1743,-0.39406 0.51082,-1.11089 0.7481,-1.59252 0.23727,-0.48164 0.61674,-1.21514 0.84359,-1.62964 0.22685,-0.41449 0.60757,-1.08086 0.84609,-1.48035 0.23811,-0.39948 0.7335,-1.17677 1.10088,-1.72721 0.36738,-0.55044 0.86528,-1.2706 1.10588,-1.60003 0.24103,-0.32943 0.73976,-0.97703 1.10881,-1.43865 0.36904,-0.46162 0.94659,-1.153 1.28311,-1.53623 0.33652,-0.38322 0.90614,-1.00247 1.26559,-1.3761 0.35946,-0.37363 0.96452,-0.97745 1.34399,-1.34149 0.37989,-0.36445 0.97203,-0.90989 1.31605,-1.21263 0.34403,-0.30233 0.88821,-0.76436 1.2093,-1.02624 0.32109,-0.26229 0.92157,-0.731 1.3344,-1.04208 0.41283,-0.31108 1.02291,-0.75436 1.35525,-0.98496 0.33235,-0.23101 0.8953,-0.60631 1.251,-0.83483 0.35571,-0.2281 0.90239,-0.56754 1.21556,-0.75352 0.31317,-0.18598 0.81023,-0.47329 1.10505,-0.63843 0.29482,-0.16555 0.89238,-0.48413 1.32814,-0.70848 0.43577,-0.22435 1.1405,-0.56754 1.56584,-0.76269 0.42534,-0.19474 1.07252,-0.47955 1.43865,-0.63217 0.36571,-0.15304 1.00288,-0.40533 1.41571,-0.56129 0.41283,-0.15595 1.11673,-0.40615 1.56375,-0.55586 0.44745,-0.1497 1.11339,-0.35903 1.48035,-0.46495 0.36696,-0.10634 0.94868,-0.26688 1.2927,-0.35695 0.34403,-0.0901 0.91657,-0.22852 1.27185,-0.30775 0.35571,-0.0792 0.93742,-0.20058 1.2927,-0.27022 0.35571,-0.0692 0.93742,-0.17305 1.29271,-0.2306 0.3557,-0.0575 0.85276,-0.13302 1.10504,-0.16721 0.25229,-0.0346 0.70265,-0.0909 1.0008,-0.12552 0.29816,-0.0342 0.90823,-0.0922 1.35525,-0.12844 0.44745,-0.0367 1.13216,-0.0826 1.52205,-0.10258 0.3899,-0.02 1.4595,-0.0296 2.37691,-0.0208 z m -0.5421,9.36874 c -0.52751,0.004 -1.08086,0.0129 -1.23015,0.0196 -0.14887,0.007 -0.58046,0.0321 -0.9591,0.0563 -0.37822,0.0246 -1.01748,0.0805 -1.41989,0.12427 -0.40198,0.0442 -1.04958,0.1276 -1.43865,0.18598 -0.38864,0.0588 -1.04458,0.17306 -1.45741,0.25437 -0.41283,0.0813 -1.08837,0.23018 -1.5012,0.33152 -0.41283,0.10091 -1.04125,0.26771 -1.39695,0.37113 -0.35528,0.10299 -1.03249,0.31858 -1.50412,0.47913 -0.47204,0.16054 -1.20388,0.43159 -1.6263,0.60256 -0.42284,0.17097 -1.03124,0.42868 -1.35233,0.57296 -0.32109,0.14387 -0.94033,0.44369 -1.3761,0.66553 -0.43576,0.22185 -1.10171,0.58172 -1.48035,0.79981 -0.37822,0.21767 -0.90364,0.53209 -1.1676,0.69847 -0.26354,0.16639 -0.74226,0.48122 -1.06335,0.70015 -0.32109,0.21892 -0.8365,0.58713 -1.1455,0.81899 -0.309,0.23143 -0.77479,0.59297 -1.03499,0.80314 -0.26063,0.21058 -0.74894,0.62258 -1.08545,0.91573 -0.33652,0.29315 -1.02582,0.94701 -1.53123,1.45241 -0.5054,0.5054 -1.15926,1.19471 -1.45241,1.53122 -0.29315,0.33652 -0.70515,0.82483 -0.91573,1.08546 -0.21017,0.2602 -0.57171,0.72599 -0.80314,1.03499 -0.23185,0.309 -0.60007,0.82441 -0.81899,1.1455 -0.21893,0.32109 -0.53376,0.7998 -0.70014,1.06335 -0.16639,0.26354 -0.4808,0.78938 -0.69848,1.1676 -0.21809,0.37822 -0.57796,1.04458 -0.7998,1.48035 -0.22185,0.43576 -0.52167,1.05501 -0.66595,1.3761 -0.14429,0.32109 -0.40199,0.92866 -0.57254,1.35024 -0.17014,0.42201 -0.44119,1.15384 -0.60215,1.6263 -0.16055,0.47288 -0.37655,1.15051 -0.47955,1.50621 -0.10342,0.35528 -0.27022,0.98412 -0.37113,1.39695 -0.10092,0.41283 -0.24979,1.08295 -0.33068,1.48911 -0.0809,0.40574 -0.20267,1.11881 -0.27105,1.5846 -0.068,0.46537 -0.1618,1.23056 -0.2085,1.70094 -0.0463,0.46996 -0.10384,1.24808 -0.12719,1.72846 -0.0238,0.4808 -0.0425,1.2877 -0.0421,1.7931 4.2e-4,0.50582 0.0188,1.25726 0.0409,1.67009 0.0221,0.41283 0.0605,0.99454 0.0855,1.2927 0.025,0.29815 0.0913,0.88904 0.14762,1.31355 0.0567,0.42409 0.17681,1.13716 0.2673,1.5846 0.0905,0.44702 0.24853,1.11339 0.3507,1.48035 0.10174,0.36696 0.26437,0.90155 0.36028,1.18845 0.0963,0.28648 0.19141,0.56462 0.21184,0.61799 l 0.0363,0.0963 0.36487,-0.30775 c 0.20058,-0.1693 0.64635,-0.53334 0.99038,-0.80897 0.34402,-0.27523 0.92574,-0.72684 1.2927,-1.00331 0.36696,-0.27647 0.94867,-0.70431 1.2927,-0.95117 0.34402,-0.24645 1.08545,-0.75228 1.64715,-1.12382 0.5617,-0.37155 1.3148,-0.8561 1.67342,-1.07628 0.3582,-0.22059 1.01498,-0.61007 1.4595,-0.86611 0.4441,-0.25603 1.23015,-0.6918 1.74598,-0.96869 0.51624,-0.27689 1.28561,-0.67137 1.7097,-0.87653 0.4245,-0.20475 1.01539,-0.48539 1.31355,-0.623 0.29815,-0.13761 0.88279,-0.39698 1.29937,-0.57671 0.41658,-0.17973 1.12048,-0.47079 1.56375,-0.64677 0.44369,-0.17555 1.26643,-0.48413 1.82813,-0.68513 0.56211,-0.20099 1.35024,-0.46954 1.7514,-0.59714 0.40157,-0.1276 1.01748,-0.31734 1.36943,-0.42159 0.35194,-0.10467 1.06501,-0.30232 1.5846,-0.4391 0.51958,-0.13719 1.31104,-0.33277 1.75807,-0.43493 0.44744,-0.10175 1.24474,-0.27022 1.77225,-0.37447 0.5275,-0.10425 1.30562,-0.24686 1.72888,-0.3165 0.42325,-0.0696 1.18344,-0.18181 1.68885,-0.24978 0.5054,-0.0676 1.18178,-0.15179 1.50287,-0.18724 0.32109,-0.0354 0.9028,-0.0922 1.2927,-0.12593 0.38989,-0.0338 1.00914,-0.0809 1.3761,-0.10467 0.36696,-0.0238 1.12715,-0.0617 1.68885,-0.0842 0.56212,-0.0225 1.28436,-0.0405 1.60545,-0.04 l 0.5838,8.3e-4 -0.31275,0.12885 c -0.1718,0.0709 -0.8757,0.36821 -1.56375,0.66053 -0.68805,0.29273 -1.673,0.72558 -2.18925,0.96202 -0.51583,0.23685 -1.67926,0.80106 -2.5854,1.25392 -0.90573,0.45286 -2.11628,1.07961 -2.68965,1.39319 -0.57338,0.31317 -1.51163,0.84276 -2.085,1.17594 -0.57338,0.3336 -1.53957,0.91615 -2.14755,1.29521 -0.60757,0.37905 -1.49912,0.95201 -1.98075,1.27351 -0.48164,0.32109 -1.18095,0.79731 -1.55374,1.05793 -0.37322,0.26063 -0.88947,0.62675 -1.14675,0.81315 -0.25771,0.18681 -0.83692,0.61716 -1.28645,0.95618 -0.44994,0.33902 -1.15384,0.88321 -1.56375,1.20972 -0.41033,0.32609 -1.01456,0.81607 -1.34274,1.08879 -0.32818,0.27229 -0.9003,0.75894 -1.27185,1.08086 -0.37113,0.32234 -1.08754,0.96368 -1.59169,1.42531 -0.50415,0.46203 -1.37443,1.29019 -1.93363,1.84063 -0.55961,0.55044 -1.38736,1.39487 -1.84022,1.8765 -0.45286,0.48164 -1.0817,1.16635 -1.3982,1.52205 -0.31609,0.35529 -0.81232,0.92783 -1.10255,1.27185 -0.29065,0.34403 -0.73016,0.87445 -0.97745,1.17886 l -0.44994,0.55336 0.35862,0.48914 c 0.19724,0.26897 0.52792,0.70807 0.73475,0.97537 0.20725,0.26771 0.60883,0.75852 0.89322,1.09045 0.28398,0.33235 0.76895,0.87445 1.07753,1.20429 0.30816,0.33027 0.84943,0.87446 1.20179,1.2093 0.35278,0.33486 0.84776,0.78981 1.10005,1.01082 0.25228,0.22142 0.78729,0.66469 1.18845,0.98495 0.40157,0.32067 1.02498,0.79355 1.38611,1.05126 0.3607,0.2577 0.95159,0.65844 1.31355,0.89071 0.36153,0.23226 0.93866,0.58713 1.28269,0.78938 0.34402,0.20182 1.09462,0.60631 1.668,0.89863 0.57337,0.29232 1.30521,0.64761 1.6263,0.7898 0.32109,0.1422 0.89363,0.38031 1.27185,0.52918 0.37863,0.14886 0.95076,0.36362 1.27185,0.47746 0.32109,0.11342 0.94992,0.31609 1.39695,0.44953 0.44744,0.13385 1.11881,0.32025 1.49244,0.41407 0.37363,0.0938 1.04917,0.2452 1.5012,0.33653 0.45203,0.0913 1.12215,0.21183 1.48911,0.26854 0.36696,0.0563 0.91114,0.13136 1.2093,0.16722 0.29815,0.0358 0.88946,0.0938 1.31355,0.12885 0.4245,0.035 1.30646,0.0751 1.9599,0.0897 0.72308,0.0158 1.58043,0.007 2.18925,-0.0233 0.55044,-0.0271 1.29187,-0.0767 1.64715,-0.11008 0.3557,-0.0334 0.94659,-0.0993 1.31355,-0.14595 0.36696,-0.0471 0.9958,-0.14136 1.39695,-0.20975 0.40157,-0.0684 1.02999,-0.19015 1.39695,-0.27105 0.36696,-0.0809 0.95827,-0.22268 1.31355,-0.31442 0.3557,-0.0922 0.8903,-0.24061 1.18845,-0.32943 0.29816,-0.0888 0.90238,-0.28481 1.34316,-0.43493 0.44077,-0.15012 1.15133,-0.41408 1.57918,-0.58672 0.42784,-0.17222 1.0525,-0.43868 1.38819,-0.59173 0.33568,-0.15303 0.93825,-0.44535 1.33899,-0.64968 0.40115,-0.20433 1.00746,-0.52959 1.34732,-0.72308 0.34028,-0.19348 0.84693,-0.49456 1.12674,-0.66886 0.27939,-0.17431 0.79939,-0.51417 1.15467,-0.75519 0.3557,-0.24144 0.89906,-0.628 1.20805,-0.85986 0.309,-0.23143 0.77478,-0.59339 1.03499,-0.80355 0.26063,-0.21059 0.74894,-0.62259 1.08545,-0.91574 0.33652,-0.29315 1.02541,-0.94659 1.53081,-1.45199 0.50499,-0.50582 1.15843,-1.19513 1.452,-1.53164 0.29356,-0.33652 0.70598,-0.82483 0.91656,-1.08546 0.21017,-0.2602 0.57921,-0.73558 0.81982,-1.05584 0.24062,-0.32026 0.68222,-0.94867 0.98162,-1.3957 0.29899,-0.44744 0.7064,-1.0867 0.90573,-1.42113 0.1989,-0.33402 0.49456,-0.85026 0.65719,-1.14675 0.16304,-0.29607 0.46162,-0.87654 0.6647,-1.28937 0.20266,-0.41283 0.51791,-1.09796 0.70097,-1.52205 0.18307,-0.4245 0.44536,-1.07169 0.58381,-1.43865 0.13802,-0.36696 0.35486,-0.9862 0.48204,-1.3761 0.12719,-0.38989 0.29899,-0.94325 0.38156,-1.22973 0.083,-0.28648 0.23352,-0.85902 0.33443,-1.27185 0.10133,-0.41325 0.2502,-1.08879 0.33152,-1.50162 0.0813,-0.41283 0.19557,-1.06877 0.25437,-1.45741 0.0584,-0.38906 0.14178,-1.03667 0.18556,-1.43865 0.0438,-0.4024 0.10342,-1.04166 0.13261,-1.41988 0.0305,-0.39323 0.053,-1.39403 0.053,-2.3352 0,-0.94117 -0.0225,-1.94197 -0.053,-2.3352 -0.0292,-0.37864 -0.0888,-1.01748 -0.13261,-1.41989 -0.0438,-0.40199 -0.12718,-1.04959 -0.18556,-1.43865 -0.0588,-0.38864 -0.17306,-1.04458 -0.25437,-1.45741 -0.0813,-0.41283 -0.23019,-1.08837 -0.33152,-1.5012 -0.10091,-0.41283 -0.26771,-1.04167 -0.37113,-1.39695 -0.103,-0.3557 -0.319,-1.03333 -0.47955,-1.50621 -0.16096,-0.47246 -0.43201,-1.20429 -0.60214,-1.6263 -0.17055,-0.42158 -0.42826,-1.02915 -0.57338,-1.35024 -0.1447,-0.32109 -0.4441,-0.94034 -0.66554,-1.3761 -0.22142,-0.43577 -0.58087,-1.10213 -0.79896,-1.48035 -0.2181,-0.37822 -0.53251,-0.90406 -0.6989,-1.1676 -0.16638,-0.26355 -0.48121,-0.74226 -0.70014,-1.06335 -0.21892,-0.32109 -0.58713,-0.83651 -0.81899,-1.1455 -0.23143,-0.309 -0.59297,-0.77479 -0.80314,-1.035 -0.21058,-0.26062 -0.623,-0.74893 -0.91657,-1.08545 -0.29356,-0.33652 -0.92824,-1.00789 -1.41029,-1.49161 -0.48247,-0.4833 -1.14883,-1.11964 -1.4816,-1.41363 -0.33235,-0.29356 -0.91448,-0.78145 -1.2927,-1.0842 -0.37822,-0.30232 -0.87195,-0.68554 -1.09713,-0.85068 -0.22518,-0.16555 -0.6943,-0.49456 -1.0425,-0.731 -0.3482,-0.23644 -0.86235,-0.57254 -1.14174,-0.74684 -0.27981,-0.17431 -0.78647,-0.47455 -1.1259,-0.66679 -0.33985,-0.19223 -0.85193,-0.47288 -1.13883,-0.62383 -0.28648,-0.15095 -0.81065,-0.40866 -1.16426,-0.57254 -0.35404,-0.16388 -0.89822,-0.40616 -1.2093,-0.53876 -0.3115,-0.13261 -0.80064,-0.33069 -1.08754,-0.43994 -0.28648,-0.10925 -0.76519,-0.28231 -1.06335,-0.38406 -0.29815,-0.10216 -0.81398,-0.2698 -1.14592,-0.37279 -0.33193,-0.103 -0.99829,-0.28815 -1.48035,-0.41117 -0.48204,-0.12301 -1.261,-0.30107 -1.73138,-0.39531 -0.46996,-0.0938 -1.30521,-0.23519 -1.85565,-0.31317 -0.55044,-0.0784 -1.32898,-0.17139 -1.73055,-0.20725 -0.40115,-0.0359 -1.09546,-0.0834 -1.5429,-0.10592 -0.44702,-0.0229 -1.24475,-0.038 -1.77225,-0.0338 z"
       id="icon" /><g
       style="font-variant-ligatures:none"
       aria-label="Demo"
       id="title"><path
         transform="matrix(1.02,0,0,1.02,-8.956524,465.21992)"
         style="font-variant-ligatures:none"
         d="m 389.456,-8.136 q -3.816,3.744 -8.712,5.904 -4.896,2.088 -10.224,2.088 -5.256,0 -10.152,-2.088 -4.824,-2.16 -8.568,-5.832 -3.744,-3.672 -5.976,-8.568 -2.232,-4.896 -2.232,-10.44 0,-5.256 2.088,-10.08 2.16,-4.896 5.832,-8.64 3.672,-3.744 8.568,-5.976 4.896,-2.232 10.44,-2.232 5.328,0 10.224,2.16 4.896,2.088 8.712,5.832 l -5.976,5.976 q -2.952,-2.232 -6.12,-3.6 -3.096,-1.44 -6.84,-1.44 -3.744,0 -7.056,1.44 -3.24,1.368 -5.688,3.816 -2.376,2.448 -3.816,5.76 -1.368,3.24 -1.368,6.984 0,3.744 1.368,7.056 1.44,3.24 3.816,5.688 2.448,2.376 5.688,3.816 3.312,1.368 7.056,1.368 3.744,0 6.768,-1.368 3.024,-1.368 5.256,-3.6 z"
         id="path253631" /><path
         transform="matrix(1.02,0,0,1.02,-8.9565234,465.21992)"
         style="font-variant-ligatures:none"
         d="m 428.29887,-54 q 5.4,0 10.224,2.088 4.89601,2.088 8.64,5.76 3.74401,3.6 5.904,8.568 2.232,4.896 2.232,10.584 0,5.4 -2.088,10.296 -2.08799,4.824 -5.76,8.568 -3.6,3.744 -8.56799,5.976 Q 433.98687,0 428.29887,0 q -5.4,0 -10.29599,-2.088 -4.89601,-2.088 -8.64001,-5.76 -3.672,-3.672 -5.904,-8.568 -2.16,-4.968 -2.16,-10.584 0,-5.472 2.088,-10.296 2.088,-4.896 5.68801,-8.568 3.67199,-3.672 8.56799,-5.832 4.96801,-2.16 10.656,-2.304 z m 0,45 q 3.528,0 6.768,-1.368 3.312,-1.44 5.76,-3.888 2.52,-2.448 3.96,-5.688 1.512,-3.312 1.512,-7.056 0,-3.6 -1.44,-6.84 -1.36799,-3.312 -3.816,-5.76 -2.448,-2.52 -5.76,-3.96 -3.24,-1.512 -6.984,-1.512 -3.6,0 -6.91199,1.44 -3.24,1.368 -5.76001,3.816 -2.448,2.448 -3.96,5.76 -1.44,3.312 -1.44,7.056 0,3.672 1.368,6.912 1.44,3.168 3.888,5.616 2.44801,2.448 5.68801,3.888 3.31199,1.44 7.12799,1.584 z"
         id="path253633" /><path
         transform="matrix(1.02,0,0,1.02,-8.9565236,465.21992)"
         style="font-variant-ligatures:none"
         d="m 484.44538,-31.968 q 0.57599,0.072 1.94399,0.288 1.44001,0.216 3.168,0.864 1.8,0.576 3.672,1.584 1.87201,1.008 3.38401,2.808 1.512,1.728 2.51999,4.248 1.008,2.52 1.008,6.048 0,0.144 -0.14399,1.44 -0.072,1.224 -0.64801,3.024 -0.576,1.8 -1.728,3.816 -1.15199,2.016 -3.312,3.816 -2.15999,1.728 -5.472,2.88 -3.24,1.152 -7.992,1.152 -4.392,0 -8.35199,-1.8 -3.88801,-1.872 -6.69601,-5.112 l 7.344,-5.688 q 0,0.072 0.504,0.648 0.57601,0.576 1.584,1.224 1.08,0.648 2.664,1.224 1.656,0.504 3.88801,0.504 4.10399,0 6.40799,-2.088 2.30401,-2.16 2.30401,-5.04 0,-2.088 -0.86401,-3.384 -0.864,-1.368 -2.376,-2.16 -1.44,-0.864 -3.384,-1.296 -1.872,-0.504 -4.032,-0.936 -0.576,-0.072 -1.944,-0.36 -1.296,-0.288 -2.952,-0.936 -1.584,-0.648 -3.384,-1.656 -1.72799,-1.08 -3.168,-2.664 -1.368,-1.656 -2.304,-3.888 -0.93599,-2.304 -0.93599,-5.4 0,-0.144 0.072,-1.296 0.14399,-1.224 0.64799,-2.88 0.57601,-1.728 1.728,-3.672 1.224,-1.944 3.38401,-3.528 2.15999,-1.656 5.39999,-2.736 3.312,-1.08 8.06401,-1.08 4.39199,0 8.35199,1.872 3.96001,1.872 6.76801,5.112 l -7.344,5.688 q -0.79201,-1.368 -2.23201,-2.088 -1.44,-0.792 -2.88,-1.152 -1.728,-0.36 -3.672,-0.432 -4.104,0 -6.40799,1.656 -2.30401,1.584 -2.30401,4.536 0,2.088 0.72001,3.312 0.71999,1.152 1.94399,1.8 1.29601,0.648 3.096,1.008 1.8,0.288 3.96001,0.72 z"
         id="path253635" /><path
         transform="matrix(1.02,0,0,1.02,-8.956524,465.21992)"
         style="font-variant-ligatures:none"
         d="M 539.738,-32.76 566.81,-54.072 V 0 h -9 v -35.496 l -18.072,14.256 -18,-14.256 V 0 h -9 v -54.072 z"
         id="path253637" /><path
         transform="matrix(1.02,0,0,1.02,-8.9565234,465.21992)"
         style="font-variant-ligatures:none"
         d="m 606.04887,-54 q 5.40001,0 10.224,2.088 4.896,2.088 8.64,5.76 3.74401,3.6 5.904,8.568 2.232,4.896 2.232,10.584 0,5.4 -2.088,10.296 -2.08799,4.824 -5.76,8.568 -3.6,3.744 -8.56799,5.976 -4.896,2.16 -10.58401,2.16 -5.4,0 -10.29599,-2.088 -4.89601,-2.088 -8.64,-5.76 -3.67201,-3.672 -5.904,-8.568 -2.16001,-4.968 -2.16001,-10.584 0,-5.472 2.08801,-10.296 2.08799,-4.896 5.688,-8.568 3.672,-3.672 8.56799,-5.832 4.968,-2.16 10.656,-2.304 z m 0,45 q 3.528,0 6.768,-1.368 3.312,-1.44 5.76,-3.888 2.52,-2.448 3.96,-5.688 1.512,-3.312 1.512,-7.056 0,-3.6 -1.44,-6.84 -1.368,-3.312 -3.816,-5.76 -2.448,-2.52 -5.76,-3.96 -3.24,-1.512 -6.984,-1.512 -3.59999,0 -6.91199,1.44 -3.24,1.368 -5.76,3.816 -2.44801,2.448 -3.96001,5.76 -1.44,3.312 -1.44,7.056 0,3.672 1.368,6.912 1.44001,3.168 3.88801,5.616 2.448,2.448 5.688,3.888 3.312,1.44 7.12799,1.584 z"
         id="path253639" /><path
         transform="matrix(1.02,0,0,1.02,-8.9565234,465.21992)"
         style="font-variant-ligatures:none"
         d="m 662.19538,-31.968 q 0.576,0.072 1.94399,0.288 1.44001,0.216 3.168,0.864 1.80001,0.576 3.672,1.584 1.872,1.008 3.38401,2.808 1.51199,1.728 2.51999,4.248 1.00801,2.52 1.00801,6.048 0,0.144 -0.144,1.44 -0.072,1.224 -0.64801,3.024 -0.576,1.8 -1.728,3.816 -1.15199,2.016 -3.31199,3.816 -2.16001,1.728 -5.47201,2.88 -3.23999,1.152 -7.992,1.152 -4.39199,0 -8.35199,-1.8 -3.88801,-1.872 -6.69601,-5.112 l 7.34401,-5.688 q 0,0.072 0.50399,0.648 0.576,0.576 1.584,1.224 1.08001,0.648 2.664,1.224 1.65601,0.504 3.88801,0.504 4.10399,0 6.408,-2.088 2.304,-2.16 2.304,-5.04 0,-2.088 -0.86401,-3.384 -0.864,-1.368 -2.376,-2.16 -1.44,-0.864 -3.384,-1.296 -1.87199,-0.504 -4.032,-0.936 -0.57599,-0.072 -1.944,-0.36 -1.29599,-0.288 -2.952,-0.936 -1.58399,-0.648 -3.384,-1.656 -1.72799,-1.08 -3.168,-2.664 -1.36799,-1.656 -2.304,-3.888 -0.936,-2.304 -0.936,-5.4 0,-0.144 0.072,-1.296 0.144,-1.224 0.648,-2.88 0.57601,-1.728 1.72801,-3.672 1.22399,-1.944 3.38399,-3.528 2.16001,-1.656 5.40001,-2.736 3.312,-1.08 8.064,-1.08 4.39199,0 8.35199,1.872 3.96001,1.872 6.76801,5.112 l -7.34401,5.688 q -0.79199,-1.368 -2.232,-2.088 -1.43999,-0.792 -2.88,-1.152 -1.72799,-0.36 -3.672,-0.432 -4.10399,0 -6.408,1.656 -2.304,1.584 -2.304,4.536 0,2.088 0.72001,3.312 0.72,1.152 1.94399,1.8 1.29601,0.648 3.096,1.008 1.80001,0.288 3.96001,0.72 z"
         id="path253641" /></g><g
       style="font-variant-ligatures:none"
       aria-label="ROBOTICS"
       id="subtitle"><path
         transform="matrix(1.88,0,0,1.88,-452.6844,527.43272)"
         style="font-variant-ligatures:none"
         d="m 442.61825,-7.84 c 1.664,-0.48 2.976,-1.312 3.872,-2.528 0.896,-1.216 1.376,-2.688 1.376,-4.48 0,-2.336 -0.8,-4.192 -2.4,-5.536 -1.6,-1.344 -3.808,-2.016 -6.624,-2.016 h -8.032 v 1.472 h 8.032 c 2.368,0 4.192,0.544 5.472,1.6 1.248,1.056 1.888,2.56 1.888,4.48 0,1.952 -0.64,3.456 -1.888,4.512 -1.28,1.056 -3.104,1.568 -5.472,1.568 h -8.032 V 0 h 1.632 v -7.328 h 6.4 c 0.64,0 1.376,-0.032 2.176,-0.16 l 5.344,7.488 h 1.856 z"
         id="path253644" /><path
         transform="matrix(1.88,0,0,1.88,-452.6844,527.43272)"
         style="font-variant-ligatures:none"
         d="m 457.42475,-1.312 c 1.76,0.992 3.744,1.472 5.952,1.472 2.176,0 4.16,-0.48 5.952,-1.472 1.76,-0.96 3.136,-2.336 4.16,-4.064 1.024,-1.728 1.536,-3.648 1.536,-5.824 0,-2.144 -0.512,-4.096 -1.536,-5.824 -1.024,-1.728 -2.4,-3.072 -4.16,-4.064 -1.792,-0.96 -3.776,-1.472 -5.952,-1.472 -2.208,0 -4.192,0.512 -5.952,1.504 -1.792,0.992 -3.168,2.336 -4.192,4.064 -1.024,1.728 -1.504,3.68 -1.504,5.792 0,2.144 0.48,4.064 1.504,5.792 1.024,1.728 2.4,3.104 4.192,4.096 z m 11.04,-1.312 c -1.536,0.864 -3.232,1.28 -5.088,1.28 -1.888,0 -3.584,-0.416 -5.12,-1.28 -1.536,-0.832 -2.72,-2.016 -3.584,-3.52 -0.896,-1.504 -1.312,-3.2 -1.312,-5.056 0,-1.856 0.416,-3.52 1.312,-5.024 0.864,-1.504 2.048,-2.688 3.584,-3.552 1.536,-0.832 3.232,-1.28 5.12,-1.28 1.856,0 3.552,0.448 5.088,1.28 1.504,0.864 2.688,2.048 3.584,3.552 0.864,1.504 1.312,3.168 1.312,5.024 0,1.856 -0.448,3.552 -1.312,5.056 -0.896,1.504 -2.08,2.688 -3.584,3.52 z"
         id="path253646" /><path
         transform="matrix(1.88,0,0,1.88,-452.6844,527.43272)"
         style="font-variant-ligatures:none"
         d="m 497.64525,-9.664 c -0.832,-0.96 -2.048,-1.568 -3.648,-1.888 1.12,-0.352 2.048,-0.992 2.72,-1.888 0.672,-0.864 1.024,-1.92 1.024,-3.232 0,-1.824 -0.704,-3.232 -2.048,-4.224 -1.344,-0.992 -3.232,-1.504 -5.664,-1.504 h -9.344 v 1.408 h 9.28 c 1.952,0 3.456,0.384 4.512,1.152 1.056,0.768 1.6,1.856 1.6,3.296 0,1.472 -0.544,2.592 -1.6,3.36 -1.056,0.768 -2.56,1.12 -4.512,1.12 h -9.28 v 1.408 h 9.984 c 2.144,0 3.808,0.384 4.928,1.12 1.12,0.768 1.696,1.92 1.696,3.488 0,1.6 -0.576,2.752 -1.696,3.52 -1.12,0.768 -2.752,1.12 -4.928,1.12 h -9.984 V 0 h 9.984 c 2.72,0 4.768,-0.512 6.176,-1.536 1.376,-1.024 2.08,-2.464 2.08,-4.384 0,-1.504 -0.448,-2.752 -1.28,-3.744 z"
         id="path253648" /><path
         transform="matrix(1.88,0,0,1.88,-452.6844,527.43272)"
         style="font-variant-ligatures:none"
         d="m 508.29975,-1.312 c 1.76,0.992 3.744,1.472 5.952,1.472 2.176,0 4.16,-0.48 5.952,-1.472 1.76,-0.96 3.136,-2.336 4.16,-4.064 1.024,-1.728 1.536,-3.648 1.536,-5.824 0,-2.144 -0.512,-4.096 -1.536,-5.824 -1.024,-1.728 -2.4,-3.072 -4.16,-4.064 -1.792,-0.96 -3.776,-1.472 -5.952,-1.472 -2.208,0 -4.192,0.512 -5.952,1.504 -1.792,0.992 -3.168,2.336 -4.192,4.064 -1.024,1.728 -1.504,3.68 -1.504,5.792 0,2.144 0.48,4.064 1.504,5.792 1.024,1.728 2.4,3.104 4.192,4.096 z m 11.04,-1.312 c -1.536,0.864 -3.232,1.28 -5.088,1.28 -1.888,0 -3.584,-0.416 -5.12,-1.28 -1.536,-0.832 -2.72,-2.016 -3.584,-3.52 -0.896,-1.504 -1.312,-3.2 -1.312,-5.056 0,-1.856 0.416,-3.52 1.312,-5.024 0.864,-1.504 2.048,-2.688 3.584,-3.552 1.536,-0.832 3.232,-1.28 5.12,-1.28 1.856,0 3.552,0.448 5.088,1.28 1.504,0.864 2.688,2.048 3.584,3.552 0.864,1.504 1.312,3.168 1.312,5.024 0,1.856 -0.448,3.552 -1.312,5.056 -0.896,1.504 -2.08,2.688 -3.584,3.52 z"
         id="path253650" /><path
         transform="matrix(1.88,0,0,1.88,-452.6844,527.43272)"
         style="font-variant-ligatures:none"
         d="M 535.53575,-20.928 V 0 h 1.632 v -20.928 h 8.064 V -22.4 h -17.76 v 1.472 z"
         id="path253652" /><path
         transform="matrix(1.88,0,0,1.88,-452.6844,527.43272)"
         style="font-variant-ligatures:none"
         d="M 549.24775,-22.4 V 0 h 1.632 v -22.4 z"
         id="path253654" /><path
         transform="matrix(1.88,0,0,1.88,-452.6844,527.43272)"
         style="font-variant-ligatures:none"
         d="m 562.20525,-1.312 c 1.76,0.992 3.744,1.472 5.952,1.472 1.6,0 3.072,-0.256 4.448,-0.8 1.376,-0.512 2.56,-1.312 3.52,-2.336 l -1.024,-1.056 c -1.824,1.792 -4.128,2.688 -6.88,2.688 -1.888,0 -3.584,-0.416 -5.12,-1.28 -1.536,-0.832 -2.752,-2.016 -3.616,-3.52 -0.896,-1.504 -1.312,-3.2 -1.312,-5.056 0,-1.856 0.416,-3.52 1.312,-5.024 0.864,-1.504 2.08,-2.688 3.616,-3.552 1.536,-0.832 3.232,-1.28 5.12,-1.28 2.784,0 5.088,0.896 6.88,2.656 l 1.024,-1.056 c -0.96,-1.024 -2.144,-1.792 -3.488,-2.304 -1.376,-0.512 -2.88,-0.8 -4.48,-0.8 -2.208,0 -4.192,0.512 -5.952,1.472 -1.76,0.992 -3.136,2.336 -4.16,4.064 -1.024,1.728 -1.504,3.68 -1.504,5.824 0,2.176 0.48,4.096 1.504,5.824 1.024,1.728 2.4,3.104 4.16,4.064 z"
         id="path253656" /><path
         transform="matrix(1.88,0,0,1.88,-452.6844,527.43272)"
         style="font-variant-ligatures:none"
         d="m 582.68175,-0.672 c 1.472,0.576 3.04,0.832 4.704,0.832 1.76,0 3.264,-0.256 4.48,-0.8 1.216,-0.512 2.112,-1.248 2.688,-2.144 0.576,-0.896 0.896,-1.888 0.896,-2.976 0,-1.312 -0.352,-2.368 -1.056,-3.136 -0.704,-0.768 -1.536,-1.376 -2.496,-1.76 -0.992,-0.384 -2.304,-0.768 -3.936,-1.184 -1.472,-0.352 -2.656,-0.704 -3.488,-1.024 -0.864,-0.32 -1.568,-0.768 -2.144,-1.376 -0.576,-0.576 -0.864,-1.376 -0.864,-2.4 0,-1.312 0.512,-2.4 1.6,-3.232 1.056,-0.832 2.624,-1.248 4.704,-1.248 1.024,0 2.08,0.16 3.168,0.48 1.088,0.32 2.08,0.8 2.976,1.408 l 0.608,-1.312 c -0.896,-0.608 -1.92,-1.088 -3.104,-1.472 -1.216,-0.352 -2.432,-0.544 -3.648,-0.544 -1.792,0 -3.264,0.288 -4.448,0.8 -1.184,0.544 -2.048,1.28 -2.624,2.176 -0.576,0.896 -0.864,1.888 -0.864,2.976 0,1.344 0.32,2.432 1.024,3.232 0.704,0.8 1.536,1.376 2.528,1.76 0.992,0.384 2.304,0.8 3.968,1.184 1.44,0.352 2.592,0.672 3.456,0.992 0.832,0.32 1.568,0.8 2.144,1.376 0.576,0.608 0.864,1.408 0.864,2.4 0,1.312 -0.544,2.368 -1.632,3.168 -1.088,0.832 -2.72,1.216 -4.832,1.216 -1.472,0 -2.88,-0.256 -4.224,-0.768 -1.344,-0.512 -2.4,-1.216 -3.168,-2.048 l -0.736,1.216 c 0.832,0.896 1.984,1.632 3.456,2.208 z"
         id="path253658" /></g></g></svg>